<svg xmlns="http://www.w3.org/2000/svg" viewBox="0 0 24 24" height="120" width="120"><g><path d="M22.38,21.29l-1,.15a.51.51,0,0,1-.57-.42l-.49-3.17a.48.48,0,0,1,.29-.53A5.05,5.05,0,0,0,23.51,12c-1.77-7.58-1-4.44-2.53-10.78A1.49,1.49,0,0,0,19.3,0L15.65.55a.22.22,0,0,0-.19.19A.23.23,0,0,0,15.6,1a2.77,2.77,0,0,1,1.28,1.1.48.48,0,0,0,.5.24l1.3-.19a.5.5,0,0,1,.56.38L19.81,5a.49.49,0,0,1-.41.61l-2.49.36a.51.51,0,0,0-.4.34L13.9,14.2a.53.53,0,0,0,0,.33,4.92,4.92,0,0,0,4,3.17.51.51,0,0,1,.43.42l.49,3.18a.5.5,0,0,1-.42.57l-1,.14a1,1,0,0,0,.29,2l5-.72a1,1,0,0,0,.85-1.13A1,1,0,0,0,22.38,21.29ZM18.15,12a1,1,0,0,1-2,0,1,1,0,0,1,2,0ZM19,9.86a1,1,0,1,1,1-1A1,1,0,0,1,19,9.86Zm.31,4a1,1,0,1,1,1,1A1,1,0,0,1,19.27,13.86Z" fill="#000000"></path><path d="M16,4h0a1.49,1.49,0,0,0-.84-1.84l-4.68-2A1.49,1.49,0,0,0,8.53.8L6.14,5.27h0L3.27,10.66A5,5,0,0,0,4.71,16.5a.5.5,0,0,1,.14.6L3.41,20.25a.49.49,0,0,1-.65.25l-.93-.39a1,1,0,0,0-1.31.52A1,1,0,0,0,1,22l4.6,2A1,1,0,0,0,7,23.38a1,1,0,0,0-.53-1.31l-.91-.39a.5.5,0,0,1-.27-.28.53.53,0,0,1,0-.39L6.7,17.87a.5.5,0,0,1,.52-.29,4.48,4.48,0,0,0,.64.05,5.11,5.11,0,0,0,1.87-.37,5,5,0,0,0,2.76-2.76l1.88-5.72Zm-9,9.29a1,1,0,1,1-1-1A1,1,0,0,1,6.94,13.26Zm.55-4.5a1,1,0,1,1,1,1A1,1,0,0,1,7.49,8.76Zm2.95,3.5a1,1,0,1,1-1-1A1,1,0,0,1,10.44,12.26Zm2.45-5.4a.24.24,0,0,1-.13.15.28.28,0,0,1-.2,0L8.67,5.36A.26.26,0,0,1,8.54,5L10,2.35a.26.26,0,0,1,.32-.11L13.69,3.7a.25.25,0,0,1,.14.31Z" fill="#000000"></path></g></svg>