<svg xmlns="http://www.w3.org/2000/svg" viewBox="0 0 24 24" height="120" width="120"><path d="M21,4a.45.45,0,0,0-.46-.16.48.48,0,0,0-.38.32L19,7.26A2,2,0,0,1,17.39,8.5H14.55a.52.52,0,0,0-.38.26.53.53,0,0,0,0,.46l.88,2.28a.51.51,0,0,0,.45.28h.83a.5.5,0,0,1,.45.72L14,18.19a2,2,0,0,1-3.87-.25l-1-4.16a.51.51,0,0,0-.45-.28H8.25a3.25,3.25,0,0,1,0-6.5h4.1a.5.5,0,0,0,.5-.5V5.35A2,2,0,0,0,11.6,3.5l-.29-.12A.49.49,0,0,1,11,3a.5.5,0,0,1,.25-.46L14,1.08a.51.51,0,0,0,.27-.52.5.5,0,0,0-.42-.41A10.9,10.9,0,0,0,12,0a12,12,0,1,0,9,4Z" fill="#000000"></path></svg>