<svg xmlns="http://www.w3.org/2000/svg" viewBox="0 0 24 24" height="120" width="120"><path d="M23.3,14.31s-.88-1.72-1.15-2.21a.25.25,0,0,1,0-.24c.27-.48,1.15-2.2,1.15-2.2a1.81,1.81,0,0,0-.79-2.44L20.28,6.11a.23.23,0,0,1-.14-.19c-.07-.55-.37-2.46-.37-2.46A1.8,1.8,0,0,0,17.7,2l-2.46.41A.23.23,0,0,1,15,2.29L13.27.52a1.86,1.86,0,0,0-2.56,0S9.35,1.9,9,2.3a.25.25,0,0,1-.23.07L6.29,2A1.81,1.81,0,0,0,4.22,3.47S3.92,5.41,3.85,6a.28.28,0,0,1-.15.2c-.5.23-2.22,1.07-2.22,1.07A1.83,1.83,0,0,0,.69,9.67s.89,1.72,1.16,2.21a.25.25,0,0,1,0,.24c-.27.49-1.15,2.2-1.15,2.2a1.81,1.81,0,0,0,.79,2.44l2.23,1.11a.25.25,0,0,1,.14.19c.07.55.37,2.46.37,2.46A1.81,1.81,0,0,0,6.3,22s1.91-.31,2.46-.42a.25.25,0,0,1,.22.08c.38.4,1.74,1.77,1.74,1.77a1.82,1.82,0,0,0,2.57,0s1.36-1.38,1.74-1.78a.25.25,0,0,1,.23-.07l2.45.41a1.81,1.81,0,0,0,2.07-1.51s.3-1.93.37-2.49a.26.26,0,0,1,.15-.2c.5-.23,2.21-1.07,2.21-1.07A1.81,1.81,0,0,0,23.3,14.31Zm-12.22,1.9a3.45,3.45,0,0,1-1.29,3.27.24.24,0,0,1-.23,0,.23.23,0,0,1-.16-.17,3.46,3.46,0,0,1,.88-3.4,2,2,0,0,1,.32-.26.26.26,0,0,1,.21,0,.29.29,0,0,1,.16.15A2.62,2.62,0,0,1,11.08,16.21Zm.45-2.43a.26.26,0,0,1-.2-.07,3.78,3.78,0,0,0-.76-.55.24.24,0,0,1-.12-.17,3.86,3.86,0,0,0-.29-.89.2.2,0,0,1,0-.21,4.72,4.72,0,0,0,.29-.9.23.23,0,0,1,.12-.17,3.67,3.67,0,0,0,.76-.55.23.23,0,0,1,.2-.06,3.6,3.6,0,0,0,.94,0,.31.31,0,0,1,.2.07,3.78,3.78,0,0,0,.76.55.26.26,0,0,1,.12.17,3.86,3.86,0,0,0,.29.89.26.26,0,0,1,0,.21,4.11,4.11,0,0,0-.29.9.23.23,0,0,1-.12.17,4.08,4.08,0,0,0-.76.55.25.25,0,0,1-.2.07A3.7,3.7,0,0,0,11.53,13.78Zm4.18-4a1.76,1.76,0,0,1-.4,0,.26.26,0,0,1-.19-.1.26.26,0,0,1,0-.21,1.66,1.66,0,0,1,.15-.39,3.46,3.46,0,0,1,3-1.89.28.28,0,0,1,.21.1.26.26,0,0,1,0,.24A3.47,3.47,0,0,1,15.71,9.8ZM14.2,4.5a.29.29,0,0,1,.24,0,.25.25,0,0,1,.16.17A3.48,3.48,0,0,1,13.72,8a2.72,2.72,0,0,1-.32.25.26.26,0,0,1-.21,0A.29.29,0,0,1,13,8.17a2.62,2.62,0,0,1-.11-.4A3.47,3.47,0,0,1,14.2,4.5ZM11.07,7.78a2.85,2.85,0,0,1-.11.39.26.26,0,0,1-.16.15.26.26,0,0,1-.21,0A2,2,0,0,1,10.27,8a3.49,3.49,0,0,1-.89-3.4.26.26,0,0,1,.17-.17.24.24,0,0,1,.23,0A3.49,3.49,0,0,1,11.07,7.78ZM8.77,9.14a1.66,1.66,0,0,1,.14.37.22.22,0,0,1,0,.21.24.24,0,0,1-.19.11,1.79,1.79,0,0,1-.4,0A3.49,3.49,0,0,1,5.56,7.58a.23.23,0,0,1,0-.23.26.26,0,0,1,.21-.11A3.47,3.47,0,0,1,8.77,9.14ZM7.71,11.58a2.46,2.46,0,0,1,.34.22.29.29,0,0,1,.09.2.28.28,0,0,1-.09.19,2.64,2.64,0,0,1-.35.23,3.46,3.46,0,0,1-3.5-.21.24.24,0,0,1,0-.42A3.45,3.45,0,0,1,7.71,11.58Zm.58,2.6a2.61,2.61,0,0,1,.4,0,.3.3,0,0,1,.19.1.29.29,0,0,1,0,.22,1.77,1.77,0,0,1-.15.38,3.44,3.44,0,0,1-3,1.89.25.25,0,0,1-.21-.1.26.26,0,0,1,0-.24A3.47,3.47,0,0,1,8.29,14.18Zm4.64,2a2.85,2.85,0,0,1,.11-.39.24.24,0,0,1,.16-.15.26.26,0,0,1,.21,0,1.59,1.59,0,0,1,.32.26,3.48,3.48,0,0,1,.89,3.4.29.29,0,0,1-.17.17.27.27,0,0,1-.23,0A3.49,3.49,0,0,1,12.93,16.2Zm2.3-1.35a1.74,1.74,0,0,1-.14-.38.26.26,0,0,1,0-.21.31.31,0,0,1,.19-.11,2.75,2.75,0,0,1,.41,0,3.47,3.47,0,0,1,2.72,2.23.26.26,0,0,1,0,.24.29.29,0,0,1-.22.1A3.49,3.49,0,0,1,15.23,14.85Zm1.06-2.45a1.79,1.79,0,0,1-.34-.22.25.25,0,0,1-.09-.19.25.25,0,0,1,.09-.2,2.46,2.46,0,0,1,.34-.22,3.45,3.45,0,0,1,3.51.21.23.23,0,0,1,.11.2.24.24,0,0,1-.11.21A3.45,3.45,0,0,1,16.29,12.4Zm5.54-3.84A.33.33,0,0,1,22,9l-.81,1.57a.23.23,0,0,1-.16.13.26.26,0,0,1-.21,0,4.78,4.78,0,0,0-1.61-.77A.23.23,0,0,1,19,9.71a.26.26,0,0,1,0-.24A5,5,0,0,0,19.9,7.9.21.21,0,0,1,20,7.75a.26.26,0,0,1,.21,0Zm-3.9-5.12a.32.32,0,0,1,.36.26l.28,1.74a.23.23,0,0,1-.06.2.25.25,0,0,1-.19.09,5,5,0,0,0-1.76.33.24.24,0,0,1-.23,0,.25.25,0,0,1-.11-.21A4.89,4.89,0,0,0,16,4a.26.26,0,0,1,0-.21.3.3,0,0,1,.17-.12ZM11.77,1.58a.26.26,0,0,1,.44,0l1.25,1.25a.28.28,0,0,1,.08.2.27.27,0,0,1-.11.18,4.9,4.9,0,0,0-1.23,1.3.25.25,0,0,1-.21.11.26.26,0,0,1-.21-.11,4.9,4.9,0,0,0-1.23-1.3.22.22,0,0,1-.1-.18.26.26,0,0,1,.07-.2ZM6.06,3.44l1.74.28A.23.23,0,0,1,8,3.84.24.24,0,0,1,8,4a5,5,0,0,0-.24,1.78.23.23,0,0,1-.1.21.24.24,0,0,1-.23,0,5.23,5.23,0,0,0-1.76-.33.24.24,0,0,1-.19-.08.25.25,0,0,1-.06-.2L5.7,3.7A.32.32,0,0,1,6.06,3.44ZM2.17,8.57l1.57-.8a.26.26,0,0,1,.21,0,.23.23,0,0,1,.14.15,4.92,4.92,0,0,0,.85,1.58.24.24,0,0,1,0,.23.29.29,0,0,1-.17.17,4.92,4.92,0,0,0-1.62.77.23.23,0,0,1-.2,0,.31.31,0,0,1-.17-.13L2,9A.31.31,0,0,1,2.17,8.57Zm0,6.85A.32.32,0,0,1,2,15l.81-1.57A.23.23,0,0,1,3,13.3a.26.26,0,0,1,.21,0,5.06,5.06,0,0,0,1.6.78.24.24,0,0,1,.18.16.26.26,0,0,1,0,.24,5.1,5.1,0,0,0-.84,1.56.25.25,0,0,1-.14.16.3.3,0,0,1-.21,0Zm3.89,5.13a.31.31,0,0,1-.35-.26l-.28-1.75a.22.22,0,0,1,.06-.19.21.21,0,0,1,.18-.09,4.84,4.84,0,0,0,1.77-.33.25.25,0,0,1,.34.25A5.05,5.05,0,0,0,8,19.94a.22.22,0,0,1,0,.21.26.26,0,0,1-.18.12Zm6.17,1.85a.26.26,0,0,1-.44,0l-1.25-1.25a.27.27,0,0,1-.08-.19.29.29,0,0,1,.11-.19,5.19,5.19,0,0,0,1.23-1.29.24.24,0,0,1,.21-.12.25.25,0,0,1,.21.12,5,5,0,0,0,1.23,1.29.22.22,0,0,1,.1.18.25.25,0,0,1-.07.2Zm5.71-1.86-1.74-.28a.23.23,0,0,1-.17-.11.26.26,0,0,1,0-.21,5.12,5.12,0,0,0,.24-1.77.23.23,0,0,1,.1-.21.24.24,0,0,1,.23,0,5,5,0,0,0,1.77.33.21.21,0,0,1,.18.09.22.22,0,0,1,.06.19l-.28,1.75A.32.32,0,0,1,17.94,20.54Zm3.89-5.13-1.57.8a.22.22,0,0,1-.21,0,.23.23,0,0,1-.14-.15,5,5,0,0,0-.85-1.57.24.24,0,0,1,0-.23.23.23,0,0,1,.17-.16,5,5,0,0,0,1.6-.79.25.25,0,0,1,.37.09L22,15A.31.31,0,0,1,21.83,15.41Z" fill="#000000"></path></svg>