<svg xmlns="http://www.w3.org/2000/svg" viewBox="0 0 24 24" height="120" width="120"><path d="M20.61,1.43a1,1,0,0,0,0,2A1.4,1.4,0,0,1,22,4.83v7.43a.25.25,0,0,1-.13.22.24.24,0,0,1-.26,0A5.55,5.55,0,0,0,13.84,14a.52.52,0,0,1-.63.18,2.85,2.85,0,0,0-2.42,0,.52.52,0,0,1-.63-.18,5.55,5.55,0,0,0-7.77-1.5.24.24,0,0,1-.26,0A.25.25,0,0,1,2,12.26V4.83a1.4,1.4,0,0,1,1.39-1.4,1,1,0,0,0,0-2A3.4,3.4,0,0,0,0,4.83V17a5.55,5.55,0,1,0,11.09,0v-.24a.91.91,0,0,1,1.82,0V17A5.55,5.55,0,1,0,24,17V4.83A3.4,3.4,0,0,0,20.61,1.43ZM5.54,20.57A3.55,3.55,0,1,1,9.09,17,3.55,3.55,0,0,1,5.54,20.57Zm12.92,0A3.55,3.55,0,1,1,22,17,3.55,3.55,0,0,1,18.46,20.57Z" fill="#ffffff"></path></svg>