<svg xmlns="http://www.w3.org/2000/svg" viewBox="0 0 24 24" height="120" width="120"><path d="M23.39,1.72A1,1,0,0,0,22,.46,21.85,21.85,0,0,1,12,2.65,21.92,21.92,0,0,1,2,.46,1,1,0,0,0,.6,1.67l1.83,5.9a1,1,0,0,0,.91.58H5.87a.5.5,0,0,1,.49.57l-.26,2a.49.49,0,0,1-.49.43H4a.51.51,0,0,0-.5.5v1a.5.5,0,0,0,.5.5H5.22a.5.5,0,0,1,.49.57L4.57,22.53h0a1,1,0,0,0,1,1.11H7.5a1,1,0,0,0,1-1v-9a.51.51,0,0,1,.5-.5h6a.5.5,0,0,1,.5.5v9a1,1,0,0,0,1,1h1.94a1,1,0,0,0,1-1.11v0l-1.14-8.8a.51.51,0,0,1,.5-.57H20a.5.5,0,0,0,.5-.5v-1a.5.5,0,0,0-.5-.5H18.4a.51.51,0,0,1-.5-.43l-.25-2a.5.5,0,0,1,.49-.57h2.53a1,1,0,0,0,.93-.63ZM15.5,10.65a.5.5,0,0,1-.5.5H13.5a.5.5,0,0,1-.5-.5v-2a.51.51,0,0,1,.5-.5H15a.5.5,0,0,1,.5.5Zm-7-2a.51.51,0,0,1,.5-.5h1.5a.5.5,0,0,1,.5.5v2a.5.5,0,0,1-.5.5H9a.5.5,0,0,1-.5-.5Z" fill="#ffffff"></path></svg>