<svg xmlns="http://www.w3.org/2000/svg" fill="none" viewBox="0 0 24 24" height="120" width="120"><path fill="#000000" d="M22.6826 13.1111L17.9033 4.451C17.33 3.3888 16.48 2.50146 15.4434 1.88302C14.4068 1.26457 13.2223 0.938049 12.0152 0.938049C10.8081 0.938049 9.62358 1.26457 8.587 1.88302C7.55041 2.50146 6.70043 3.3888 6.12712 4.451L1.34783 13.1111C0.776626 14.1349 0.484475 15.2909 0.500636 16.4632C0.516797 17.6355 0.840703 18.783 1.43991 19.7907C2.03912 20.7984 2.89259 21.631 3.91485 22.205C4.9371 22.7791 6.09225 23.0744 7.26459 23.0616H12.5505C12.804 23.0616 13.0471 22.9608 13.2264 22.7816C13.4056 22.6023 13.5063 22.3592 13.5063 22.1057C13.5063 21.8522 13.4056 21.6091 13.2264 21.4298C13.0471 21.2505 12.804 21.1498 12.5505 21.1498H7.26459C6.42615 21.1585 5.6002 20.9464 4.86966 20.5349C4.13911 20.1233 3.52969 19.5269 3.10258 18.8053C2.67546 18.0838 2.44569 17.2626 2.43633 16.4242C2.42697 15.5857 2.63835 14.7596 3.04925 14.0287L7.82854 5.36863C8.05641 4.95371 8.34293 4.57383 8.67926 4.24071V9.61264C8.67926 9.86614 8.77996 10.1093 8.95922 10.2885C9.13848 10.4678 9.38161 10.5685 9.63511 10.5685H14.4144C14.6679 10.5685 14.911 10.4678 15.0903 10.2885C15.2696 10.1093 15.3703 9.86614 15.3703 9.61264V4.25027C15.7086 4.57806 15.9954 4.9551 16.221 5.36863L21.0003 14.0287C21.4035 14.7634 21.6085 15.5905 21.5951 16.4285C21.5817 17.2665 21.3504 18.0865 20.9238 18.808C20.4354 19.6423 19.7055 20.3088 18.8305 20.7197C18.6237 20.8441 18.4716 21.0422 18.4048 21.2741C18.338 21.506 18.3614 21.7546 18.4703 21.97C18.5792 22.1854 18.7655 22.3516 18.9919 22.4353C19.2183 22.519 19.4679 22.5139 19.6907 22.4211C20.8898 21.8406 21.8883 20.9153 22.5583 19.7638C23.153 18.7605 23.477 17.62 23.4988 16.4539C23.5206 15.2877 23.2394 14.1359 22.6826 13.1111V13.1111Z"></path><path fill="#000000" d="M7.50356 12.9677C7.50356 12.7786 7.4475 12.5938 7.34247 12.4367C7.23744 12.2795 7.08815 12.1569 6.91349 12.0846C6.73883 12.0123 6.54664 11.9933 6.36122 12.0302C6.1758 12.0671 6.00549 12.1581 5.87181 12.2918C5.73813 12.4255 5.64709 12.5958 5.61021 12.7812C5.57333 12.9666 5.59226 13.1588 5.6646 13.3335C5.73695 13.5082 5.85946 13.6574 6.01665 13.7625C6.17384 13.8675 6.35865 13.9236 6.5477 13.9236C6.80121 13.9236 7.04434 13.8229 7.22359 13.6436C7.40285 13.4643 7.50356 13.2212 7.50356 12.9677Z"></path><path fill="#000000" d="M18.4959 12.9677C18.4959 12.7786 18.4399 12.5938 18.3348 12.4367C18.2298 12.2795 18.0805 12.1569 17.9058 12.0846C17.7312 12.0123 17.539 11.9933 17.3536 12.0302C17.1682 12.0671 16.9978 12.1581 16.8642 12.2918C16.7305 12.4255 16.6394 12.5958 16.6026 12.7812C16.5657 12.9666 16.5846 13.1588 16.657 13.3335C16.7293 13.5082 16.8518 13.6574 17.009 13.7625C17.1662 13.8675 17.351 13.9236 17.5401 13.9236C17.7936 13.9236 18.0367 13.8229 18.2159 13.6436C18.3952 13.4643 18.4959 13.2212 18.4959 12.9677Z"></path><path fill="#000000" d="M16.6033 16.5043C16.754 16.3305 16.8369 16.1082 16.8369 15.8782C16.8369 15.6482 16.754 15.4259 16.6033 15.2521C16.4345 15.0636 16.1979 14.9497 15.9452 14.9353C15.6926 14.921 15.4446 15.0074 15.2556 15.1757C14.3791 15.9603 13.2441 16.3941 12.0678 16.3941C10.8914 16.3941 9.75642 15.9603 8.87999 15.1757C8.78647 15.0903 8.67706 15.0242 8.558 14.9811C8.43893 14.9381 8.31255 14.9189 8.18607 14.9246C8.05959 14.9304 7.93548 14.961 7.82083 15.0148C7.70619 15.0685 7.60325 15.1443 7.51789 15.2378C7.43253 15.3313 7.36643 15.4407 7.32336 15.5598C7.28029 15.6789 7.26109 15.8052 7.26686 15.9317C7.27262 16.0582 7.30325 16.1823 7.35698 16.297C7.41072 16.4116 7.4865 16.5146 7.58002 16.5999C8.80793 17.697 10.3973 18.3028 12.0439 18.3013C12.3895 18.3044 12.7348 18.2789 13.0762 18.2249L14.0321 19.9932C14.1375 20.2286 14.2883 20.4408 14.4758 20.6179C14.6632 20.795 14.8838 20.9335 15.1247 21.0253C15.3657 21.1172 15.6224 21.1607 15.8802 21.1534C16.138 21.146 16.3919 21.088 16.6272 20.9825C16.8626 20.8771 17.0749 20.7263 17.252 20.5388C17.429 20.3513 17.5675 20.1308 17.6593 19.8898C17.7512 19.6489 17.7947 19.3921 17.7874 19.1343C17.78 18.8765 17.722 18.6227 17.6165 18.3874L16.6033 16.5043Z"></path></svg>