<svg xmlns="http://www.w3.org/2000/svg" viewBox="0 0 24 24" height="120" width="120"><path d="M23.87,12.25A3,3,0,0,0,21,8.37H16.1a1,1,0,0,1-1-1.25L16,3.77a2.71,2.71,0,0,0-4.84-2.25L6.28,8.45a1,1,0,0,1-.82.42h-2A1.51,1.51,0,0,0,2,7.87H.5a.5.5,0,0,0-.5.5v14a.5.5,0,0,0,.5.5H2a1.5,1.5,0,0,0,1.5-1.5v-.62c5.12,2.57,6.24,2.88,9.71,2.88l3.06,0c2.8,0,4.66-1.62,5.69-5l1.9-6.36ZM22,11.65v0L20,18.09c-.76,2.46-1.89,3.52-3.77,3.52H14.33c-4.18.05-4.59.05-10.55-3a.49.49,0,0,1-.28-.44V11.37a.5.5,0,0,1,.5-.5H5.46A3,3,0,0,0,7.92,9.6L12.8,2.68a.74.74,0,0,1,1.14,0,.7.7,0,0,1,.14.62L13.2,6.61a3,3,0,0,0,2.9,3.76H21a1,1,0,0,1,.81.41A1,1,0,0,1,22,11.65Z" fill="#000000"></path></svg>