<svg xmlns="http://www.w3.org/2000/svg" viewBox="0 0 24 24" height="120" width="120"><g><path d="M8.5,14a1,1,0,0,0-.66.25L5,16.77V15a1,1,0,0,0-1-1H2.25A.25.25,0,0,1,2,13.75V2.25A.25.25,0,0,1,2.25,2h18a.25.25,0,0,1,.25.25v8.38a.28.28,0,0,0,.1.21,6.92,6.92,0,0,1,1.45,1.41.25.25,0,0,0,.45-.15V2a2,2,0,0,0-2-2H2A2,2,0,0,0,0,2V14.05A2,2,0,0,0,2,16H3v3a1,1,0,0,0,.59.91,1,1,0,0,0,1.07-.16L8.88,16H9.3a.25.25,0,0,0,.24-.22,7.62,7.62,0,0,1,.31-1.45.27.27,0,0,0,0-.23.26.26,0,0,0-.2-.1Z" fill="#000000"></path><path d="M23.71,22.29l-2.54-2.53a.26.26,0,0,1,0-.31,5.5,5.5,0,1,0-1.69,1.69.26.26,0,0,1,.31,0l2.53,2.54a1,1,0,0,0,1.42-1.42ZM16.5,20A3.5,3.5,0,1,1,20,16.5,3.5,3.5,0,0,1,16.5,20Z" fill="#000000"></path></g></svg>