<svg xmlns="http://www.w3.org/2000/svg" viewBox="0 0 24 24" height="120" width="120"><g><path d="M12,0A12,12,0,1,0,24,12,12,12,0,0,0,12,0Zm0,22A10,10,0,1,1,22,12,10,10,0,0,1,12,22Z" fill="#db2777"></path><path d="M9.08,9.9a1,1,0,0,0,.92.6,1.14,1.14,0,0,0,.4-.08,1,1,0,0,0,.52-1.32,3.5,3.5,0,0,0-6.42,0A1,1,0,0,0,5,10.42,1,1,0,0,0,6.33,9.9a1.5,1.5,0,0,1,2.75,0Z" fill="#db2777"></path><path d="M19.5,9.1a3.5,3.5,0,0,0-6.42,0,1,1,0,1,0,1.84.8,1.5,1.5,0,0,1,2.75,0,1,1,0,0,0,.91.6,1.1,1.1,0,0,0,.4-.08A1,1,0,0,0,19.5,9.1Z" fill="#db2777"></path><path d="M16.49,14.13a1,1,0,0,0-1.36.38,3.68,3.68,0,0,1-3.13,2,3.68,3.68,0,0,1-3.13-2,1,1,0,1,0-1.74,1,5.62,5.62,0,0,0,4.87,3,5.62,5.62,0,0,0,4.87-3A1,1,0,0,0,16.49,14.13Z" fill="#db2777"></path></g></svg>