<svg xmlns="http://www.w3.org/2000/svg" viewBox="0 0 24 24" height="120" width="120"><g><g><path d="M21.24,16H23a1,1,0,0,0,.18-2,.26.26,0,0,1-.2-.21,1,1,0,0,0-1-.83,1,1,0,0,0-1,1s0,0,0,0a2.35,2.35,0,0,0-1,4.29l1.88,1.26a.3.3,0,0,1,.14.26.31.31,0,0,1-.31.31H19.9a1,1,0,0,0-1,1,1,1,0,0,0,.83,1,.25.25,0,0,1,.21.21,1,1,0,0,0,2,0,.25.25,0,0,1,.2-.22A2.34,2.34,0,0,0,24,19.74a2.36,2.36,0,0,0-1.05-2l-1.89-1.25a.33.33,0,0,1-.13-.26A.31.31,0,0,1,21.24,16Z" fill="#000000"></path><path d="M2.76,8.05H1a1,1,0,0,0-.18,2,.26.26,0,0,1,.2.21,1,1,0,0,0,1,.83,1,1,0,0,0,1-.87.26.26,0,0,1,.2-.21,2.35,2.35,0,0,0,.81-4.26L2.19,4.52a.3.3,0,0,1-.14-.26A.31.31,0,0,1,2.36,4H4.1a1,1,0,0,0,.19-2,.25.25,0,0,1-.21-.21,1,1,0,0,0-2,.19s0,0,0,0a2.36,2.36,0,0,0-1,4.3L2.94,7.48a.33.33,0,0,1,.13.26A.31.31,0,0,1,2.76,8.05Z" fill="#000000"></path><path d="M3.58,18.19c-1.08,1.07-1.32,3.59-1.37,4.43a.24.24,0,0,0,.07.2.3.3,0,0,0,.2.08c.85-.06,3.36-.3,4.44-1.38a2.29,2.29,0,0,0,0-3.34,2.52,2.52,0,0,0-1.71-.73A2.28,2.28,0,0,0,3.58,18.19Z" fill="#000000"></path></g><path d="M14.66,17.11l-.27-.78c3.77-2.34,7-5.27,6.19-11.5a.54.54,0,0,0-.5-.47c-6.26-.47-9,2.88-11.18,6.76l-.8-.24a2.9,2.9,0,0,0-2.81.83L4,13a1.13,1.13,0,0,0-.27,1.1,1.08,1.08,0,0,0,.28.47,1,1,0,0,0,.57.27l2.7.48,2.92,2.78.6,2.65a1.14,1.14,0,0,0,.31.57,1,1,0,0,0,.48.26,1.14,1.14,0,0,0,1.09-.32L14,20A2.9,2.9,0,0,0,14.66,17.11Zm-.25-6.29a1.63,1.63,0,1,1,2.31-.06A1.64,1.64,0,0,1,14.41,10.82Z" fill="#000000"></path></g></svg>