<svg xmlns="http://www.w3.org/2000/svg" viewBox="0 0 24 24" height="120" width="120"><path d="M22.86,11.92h-.08V10.83a1,1,0,1,0-2,0v1.09H16.34V9.44h.08a1,1,0,1,0,0-2h-.08V6.35a1,1,0,1,0-2,0V7.44H9.9V5H10a1,1,0,0,0,0-2H9.9V1.87a1,1,0,1,0-2,0V3H3.35V1.87a1,1,0,0,0-2,0V3H1.14a1,1,0,0,0,0,2h.21V22.13a1,1,0,0,0,2,0V5H7.9V7.44H7.82a1,1,0,1,0,0,2H7.9V22.13a1,1,0,0,0,2,0V9.44h4.44v2.48h-.08a1,1,0,0,0,0,2h.08v8.21a1,1,0,0,0,2,0V13.92h4.44v8.21a1,1,0,0,0,2,0V13.92h.08a1,1,0,0,0,0-2Z" fill="#ffffff"></path></svg>