<svg xmlns="http://www.w3.org/2000/svg" viewBox="0 0 24 24" height="120" width="120"><path d="M24,7.5A2.5,2.5,0,0,0,21.5,5H13.87a.25.25,0,0,1-.23-.15.26.26,0,0,1,0-.28l2.44-2.44A1.24,1.24,0,1,0,14.37.37l-4,4a.5.5,0,0,1-.7,0l-4-4A1.24,1.24,0,0,0,3.87,2.13L6.31,4.57a.26.26,0,0,1,.05.28A.25.25,0,0,1,6.13,5H2.5A2.5,2.5,0,0,0,0,7.5v14A2.5,2.5,0,0,0,2.5,24h19A2.5,2.5,0,0,0,24,21.5Zm-6.5,12a2,2,0,0,1-2,2H4.5a2,2,0,0,1-2-2V9.5a2,2,0,0,1,2-2h11a2,2,0,0,1,2,2ZM21,21a1,1,0,1,1,1-1A1,1,0,0,1,21,21Zm1-5a.5.5,0,0,1-.5.5h-1A.5.5,0,0,1,20,16V9a.5.5,0,0,1,.5-.5h1A.5.5,0,0,1,22,9Z" fill="#000000"></path></svg>